<?xml version="1.0" encoding="utf-8"?>
<!-- Generator: Adobe Illustrator 19.1.0, SVG Export Plug-In . SVG Version: 6.00 Build 0)  -->
<svg version="1.1" id="Capa_1" xmlns="http://www.w3.org/2000/svg" xmlns:xlink="http://www.w3.org/1999/xlink" x="0px" y="0px"
	 viewBox="0 0 150 30" style="enable-background:new 0 0 150 30;" xml:space="preserve">
<style type="text/css">
	.st0{fill:#0A4F9E;}
	.st1{fill:#0D4F9E;}
	.st2{fill:#E52429;}
</style>
<g>
	<polygon class="st0" points="91.8,7.1 90.6,7.1 90.6,4.6 88.2,4.6 88.2,7.1 87,7.1 87,1.1 88.2,1.1 88.2,3.5 90.6,3.5 90.6,1.1 
		91.8,1.1 	"/>
	<path class="st0" d="M97.7,2c0.4,0.5,0.6,1.3,0.6,2.2c0,1.1-0.3,1.9-0.9,2.4c-0.5,0.4-1.1,0.6-2,0.6c-1.2,0-2.1-0.4-2.5-1.1
		c-0.4-0.5-0.5-1.2-0.5-2c0-1.2,0.3-2,0.9-2.5C93.8,1.2,94.5,1,95.4,1C96.4,1,97.3,1.4,97.7,2 M94.1,2.7c-0.2,0.3-0.3,0.8-0.3,1.4
		c0,1.4,0.5,2.1,1.6,2.1c1.1,0,1.6-0.6,1.6-2c0-1.4-0.5-2-1.6-2C94.8,2,94.3,2.3,94.1,2.7"/>
	<polygon class="st0" points="100.1,7.1 98.9,7.1 98.9,1.1 100.5,1.1 102.9,5.6 102.9,1.1 104.1,1.1 104.1,7.1 102.6,7.1 100.1,2.7 
			"/>
	<path class="st0" d="M107.6,1.1c1.2,0,2,0.2,2.4,0.8c0.4,0.4,0.6,1.3,0.6,2.2c0,0.5-0.1,1.2-0.3,1.6c-0.2,0.7-0.6,1.1-1.3,1.3
		c-0.3,0.1-0.7,0.1-1.5,0.1H105v-6H107.6z M106.3,6h1.3c0.6,0,1-0.1,1.2-0.4c0.3-0.3,0.4-0.9,0.4-1.5c0-0.7-0.2-1.4-0.6-1.7
		c-0.2-0.2-0.5-0.3-1.1-0.3h-1.3V6z"/>
	<path class="st0" d="M112.3,4.7c0,0.6,0.1,0.9,0.3,1.1c0.2,0.2,0.6,0.3,1,0.3c0.6,0,1-0.2,1.2-0.6c0.1-0.2,0.1-0.4,0.1-0.9V1.1h1.3
		v3.5c0,1-0.2,1.6-0.6,1.9c-0.5,0.4-1.1,0.6-2,0.6c-1,0-1.6-0.2-2.1-0.7c-0.4-0.4-0.6-0.9-0.6-1.8V1.1h1.3V4.7z"/>
	<path class="st0" d="M118.4,7.1h-1.3v-6h2.9c0.9,0,1.4,0.1,1.8,0.4c0.4,0.3,0.7,0.8,0.7,1.3c0,0.9-0.4,1.5-1.1,1.8
		c0.7,0.2,1,0.7,1.1,1.7c0,0.6,0.1,0.7,0.1,0.9h-1.4c0-0.1-0.1-0.2-0.1-0.3c0-0.2,0-0.4-0.1-0.5c-0.1-1.1-0.5-1.4-1.6-1.4h-1V7.1z
		 M120.2,3.7c0.3,0,0.5,0,0.7-0.2c0.2-0.1,0.3-0.4,0.3-0.7c0-0.4-0.2-0.6-0.4-0.7c-0.1,0-0.3,0-0.5,0h-1.8v1.6H120.2z"/>
	<path class="st0" d="M125.1,1.1h1.5l2.5,6h-1.5L127,5.7h-2.3l-0.6,1.4h-1.5L125.1,1.1z M125,4.6h1.7l-0.9-2.1L125,4.6z"/>
	<path class="st0" d="M129.3,6h2.7c0.5,0,0.7,0,0.9-0.1c0.2-0.1,0.3-0.3,0.3-0.6c0-0.3-0.1-0.5-0.4-0.6c-0.1-0.1-0.4-0.1-0.6-0.1
		h-1.1c-0.7,0-1.2-0.1-1.5-0.4c-0.4-0.3-0.6-0.8-0.6-1.3c0-0.8,0.4-1.4,1-1.7c0.3-0.1,0.6-0.1,1.3-0.1h3v1.1h-2.7
		c-0.6,0-0.8,0-0.9,0.1c-0.2,0.1-0.3,0.3-0.3,0.6c0,0.2,0.1,0.4,0.3,0.5c0.2,0.1,0.4,0.1,0.8,0.1h1c0.9,0,1.4,0.1,1.7,0.5
		c0.3,0.3,0.5,0.8,0.5,1.3c0,0.6-0.3,1.2-0.8,1.5c-0.3,0.2-0.7,0.2-1.6,0.2h-3V6z"/>
	<polygon class="st0" points="92.8,17.9 95.5,9.8 98.7,9.8 98.7,20.2 96.6,20.2 96.6,12.4 93.9,20.2 91.6,20.2 89.1,12.4 89.1,20.2 
		87,20.2 87,9.8 90.2,9.8 	"/>
	<path class="st0" d="M108,11.6h-2.9c-1.5,0-2.1,0.2-2.5,0.8c-0.3,0.4-0.4,0.7-0.5,1.7h5.8v1.9h-5.8c0.2,1.8,0.9,2.4,3.1,2.4h2.8
		v1.9h-2.9c-2.2,0-3.3-0.3-4.1-1.2c-0.9-0.9-1.4-2.4-1.4-4.1c0-1.9,0.6-3.3,1.8-4.3c0.7-0.6,1.4-0.8,2.8-0.8h3.7V11.6z"/>
	<path class="st0" d="M113.5,9.8c2.1,0,3.4,0.4,4.2,1.4c0.6,0.7,1,2.3,1,3.8c0,0.9-0.2,2-0.4,2.8c-0.4,1.1-1.1,1.8-2.2,2.2
		c-0.6,0.2-1.2,0.2-2.6,0.2h-4.4V9.8H113.5z M111.3,18.3h2.2c1,0,1.7-0.2,2.1-0.7c0.4-0.5,0.7-1.6,0.7-2.6c0-1.3-0.4-2.4-1-2.9
		c-0.4-0.3-0.9-0.5-1.8-0.5h-2.2V18.3z"/>
	<rect x="119.7" y="9.8" class="st0" width="2.2" height="10.4"/>
	<path class="st0" d="M131.2,20.2h-3.6c-1.8,0-2.6-0.2-3.5-1c-0.9-0.9-1.4-2.3-1.4-4.1c0-2.3,0.8-4.1,2.3-4.7
		c0.6-0.3,1.6-0.5,2.6-0.5h3.5v1.9H128c-1,0-1.8,0.3-2.2,0.8c-0.3,0.4-0.5,1.2-0.5,2.3c0,1.5,0.3,2.6,0.9,3c0.4,0.3,1,0.5,1.9,0.5
		h3.2V20.2z"/>
	<path class="st0" d="M135.7,9.8h2.5l4.3,10.4h-2.6l-1-2.4h-4l-1,2.4h-2.6L135.7,9.8z M135.5,15.9h3l-1.5-3.6L135.5,15.9z"/>
	<path class="st0" d="M145.1,9.8v5.8c0.1,1.8,0.1,1.9,0.5,2.3c0.4,0.4,0.9,0.5,2.3,0.5h2.1v1.9h-2.3c-1.5,0-1.8,0-2.3-0.2
		c-1.1-0.3-1.9-1-2.2-2c-0.2-0.5-0.2-1.3-0.2-2.4V9.8H145.1z"/>
	<path class="st0" d="M91.8,28.9h-2.1c-1,0-1.5-0.1-2-0.6C87.2,27.8,87,27,87,25.9c0-1.4,0.5-2.4,1.3-2.8c0.3-0.2,0.9-0.3,1.5-0.3h2
		v1.1H90c-0.6,0-1,0.2-1.3,0.5c-0.2,0.2-0.3,0.7-0.3,1.3c0,0.9,0.2,1.5,0.6,1.8c0.2,0.2,0.6,0.3,1.1,0.3h1.8V28.9z"/>
	<path class="st0" d="M96.9,23.9h-1.7c-0.9,0-1.2,0.1-1.5,0.4c-0.2,0.2-0.2,0.4-0.3,1h3.4v1.1h-3.4c0.1,1,0.5,1.4,1.8,1.4h1.6v1.1
		h-1.7c-1.3,0-1.9-0.2-2.4-0.7c-0.5-0.5-0.8-1.4-0.8-2.4c0-1.1,0.3-1.9,1-2.5c0.4-0.4,0.8-0.5,1.7-0.5h2.2V23.9z"/>
	<polygon class="st0" points="98.8,28.9 97.6,28.9 97.6,22.9 99.2,22.9 101.6,27.3 101.6,22.9 102.8,22.9 102.8,28.9 101.2,28.9 
		98.8,24.5 	"/>
	<polygon class="st0" points="103.1,23.9 103.1,22.9 108.3,22.9 108.3,23.9 106.3,23.9 106.3,28.9 105,28.9 105,23.9 	"/>
	<path class="st0" d="M113.1,23.9h-1.7c-0.9,0-1.2,0.1-1.5,0.4c-0.2,0.2-0.2,0.4-0.3,1h3.4v1.1h-3.4c0.1,1,0.5,1.4,1.8,1.4h1.6v1.1
		h-1.7c-1.3,0-1.9-0.2-2.4-0.7c-0.5-0.5-0.8-1.4-0.8-2.4c0-1.1,0.3-1.9,1-2.5c0.4-0.4,0.8-0.5,1.7-0.5h2.2V23.9z"/>
	<path class="st0" d="M115.1,28.9h-1.3v-6h2.9c0.9,0,1.4,0.1,1.8,0.4c0.4,0.3,0.7,0.8,0.7,1.3c0,0.9-0.4,1.5-1.1,1.8
		c0.7,0.2,1,0.7,1.1,1.7c0,0.6,0.1,0.7,0.1,0.9h-1.4c0-0.1-0.1-0.2-0.1-0.3c0-0.2,0-0.4-0.1-0.5c-0.1-1.1-0.5-1.4-1.6-1.4h-1V28.9z
		 M116.9,25.5c0.3,0,0.5,0,0.7-0.2c0.2-0.1,0.3-0.4,0.3-0.7c0-0.4-0.2-0.6-0.4-0.7c-0.1,0-0.3,0-0.5,0h-1.8v1.6H116.9z"/>
	<polygon class="st1" points="32.2,19.2 32.2,29 25.4,29 25.4,19.2 	"/>
	<polygon class="st2" points="15.8,29 15.8,18.1 7.1,18.1 7.1,29 0,29 0,1.1 7.1,1.1 7.1,11.9 15.8,11.9 15.8,1.1 22.9,1.1 
		22.9,11.9 32.2,11.9 32.2,18.1 22.9,18.1 22.9,29 	"/>
	<polygon class="st0" points="50.5,29 50.5,10.8 49.9,10.8 44.3,29 37.9,29 32.8,10.8 25.4,10.8 25.4,1.1 35.1,1.1 41.2,20.7 
		47.6,1.1 57.3,1.1 57.3,29 	"/>
	<path class="st0" d="M81.6,28.9h-9.7c-4.8,0-7.2-0.6-9.4-2.7c-2.4-2.3-3.8-6.2-3.8-11.2c0-6.6,2.5-11.1,6.4-12.8
		C66.7,1.6,69.5,1,72.2,1h9.4v6.2h-8.7c-3.8,0-4.9,1.4-5.5,2.1c-0.6,0.7-1,3-1,5.2c0,3.5,0.7,6.2,2.1,7.2c1.1,0.8,2.1,0.9,4.6,1h8.5
		V28.9z"/>
</g>
</svg>
